# xmcd CD database file
# Copyright (C) 1993-1996 Ti Kan
#
# Track frame offsets:
#  150
#  16896
#  34886
#  52258
#  69168
#  84236
#  99874
#  117037
#  133487
#  150410
#
# Disc length: 2206 seconds
#
# Revision: 1
# Processed by: cddbd v1.5.2PL0 Copyright (c) Steve Scherf et al.
# Submitted via: Advanced CD Ripper Pro 2.0
#
DISCID=76089c0a
DTITLE=HASAN YILMAZ - HALÝME KIZ
DYEAR=2008
DGENRE=
TTITLE0=HALÝME KIZ
TTITLE1=HIM HIM YAR
TTITLE2=KONYA BÜLBÜLÜ
TTITLE3=KELLE
TTITLE4=ALACA ÇORAP
TTITLE5=YAÞ KEREVÝZ
TTITLE6=SEN NE ÝÞE YARARSIN
TTITLE7=BU ÝÞLERDE ACEMÝYÝN
TTITLE8=FAYTON
TTITLE9=AYANCIK EÐLMELERÝ
EXTD=
EXTT0=
EXTT1=
EXTT2=
EXTT3=
EXTT4=
EXTT5=
EXTT6=
EXTT7=
EXTT8=
EXTT9=
PLAYORDER=
